# xmcd
#
# Track frame offsets:
#   150
#   21881
#   43184
#   62258
#   91407
#   112218
#   129395
#   148198
#   166680
#   184365
#   211877
#   230676
#   248346
#   269362
#   286843
#   309201
#   327928
#
# Disc length: 4664 seconds
#
# Revision: 0
# Processed by: cddbd v1.5.2PL0 Copyright (c) Steve Scherf et al.
# Submitted via: Media_Universe 3.0
#
DISCID=ee123611
DTITLE=Billy Ocean  - Billy Ocean - The Real... Billy Ocean_ The Ultimate Collection [Disc 2]
DYEAR=2014
DGENRE=R and B
TTITLE0=Billy Ocean - What You Doing To Me
TTITLE1=Billy Ocean - Nights (Feel Like Gettin' Down)
TTITLE2=Billy Ocean - Another Day Won't Matter
TTITLE3=Billy Ocean - Calypso Funkin'
TTITLE4=Billy Ocean - City Limit
TTITLE5=Billy Ocean - I Can't Stop
TTITLE6=Billy Ocean - Inner Feelings
TTITLE7=Billy Ocean - Caribbean Queen (No More Love On The Run)
TTITLE8=Billy Ocean - If I Should Lose You
TTITLE9=Billy Ocean - Lucky Man
TTITLE10=Billy Ocean - Loverboy
TTITLE11=Billy Ocean - Mystery Lady
TTITLE12=Billy Ocean - The Long And Winding Road
TTITLE13=Billy Ocean - Suddenly
TTITLE14=Billy Ocean - Showdown
TTITLE15=Billy Ocean - When The Going Gets Tough, The Tough Get Going
TTITLE16=Billy Ocean - There'll Be Sad Songs (To Make You Cry)
EXTD=
EXTT0=
EXTT1=
EXTT2=
EXTT3=
EXTT4=
EXTT5=
EXTT6=
EXTT7=
EXTT8=
EXTT9=
EXTT10=
EXTT11=
EXTT12=
EXTT13=
EXTT14=
EXTT15=
EXTT16=
PLAYORDER=
